<?xml version="1.0" encoding="UTF-8" standalone="no"?>
<!-- Created with Inkscape (http://www.inkscape.org/) -->

<svg
   xmlns:dc="http://purl.org/dc/elements/1.1/"
   xmlns:cc="http://creativecommons.org/ns#"
   xmlns:rdf="http://www.w3.org/1999/02/22-rdf-syntax-ns#"
   xmlns:svg="http://www.w3.org/2000/svg"
   xmlns="http://www.w3.org/2000/svg"
   xmlns:sodipodi="http://sodipodi.sourceforge.net/DTD/sodipodi-0.dtd"
   xmlns:inkscape="http://www.inkscape.org/namespaces/inkscape"
   width="111mm"
   height="111mm"
   viewBox="0 0 111 111"
   version="1.1"
   id="svg8"
   inkscape:version="0.92.4 (5da689c313, 2019-01-14)"
   sodipodi:docname="peach logo.svg">
  <defs
     id="defs2" />
  <sodipodi:namedview
     id="base"
     pagecolor="#ffffff"
     bordercolor="#666666"
     borderopacity="1.0"
     inkscape:pageopacity="0.0"
     inkscape:pageshadow="2"
     inkscape:zoom="0.49497475"
     inkscape:cx="510.47926"
     inkscape:cy="698.19291"
     inkscape:document-units="mm"
     inkscape:current-layer="layer1"
     showgrid="false"
     inkscape:window-width="2560"
     inkscape:window-height="1017"
     inkscape:window-x="1912"
     inkscape:window-y="-8"
     inkscape:window-maximized="1" />
  <metadata
     id="metadata5">
    <rdf:RDF>
      <cc:Work
         rdf:about="">
        <dc:format>image/svg+xml</dc:format>
        <dc:type
           rdf:resource="http://purl.org/dc/dcmitype/StillImage" />
        <dc:title></dc:title>
      </cc:Work>
    </rdf:RDF>
  </metadata>
  <g
     inkscape:label="Layer 1"
     inkscape:groupmode="layer"
     id="layer1"
     transform="translate(0,-186)">
    <g
       id="g872"
       transform="translate(-45.071204,158.61808)">
      <g
         id="g887"
         transform="matrix(1.3929443,0,0,1.3929443,225.70629,-175.81548)"
         style="stroke-width:0.71790373">
        <path
           transform="scale(0.26458333)"
           id="path881"
           d="m -385.19141,572.24805 c -6.0055,-2.73746 -12.82377,-5.57643 -17.8164,-6.67578 -13.61065,-2.99698 -41.78516,-1.42774 -41.78516,-1.42774 0,0 -14.96684,0.34358 -22.58398,2.75 -6.01807,1.90114 -22.0586,-0.0476 -22.0586,1.53516 -0.4783,2.11615 12.3798,9.49855 16.44922,13.19531 19.00725,17.26643 39.4982,21.29346 62.1211,24.30469 16.07916,2.14023 44.14409,-7.11299 54.16796,-11.50586 -9.6351,-2.59476 -35.04166,-9.33215 -49.3457,-12.06641 -11.12394,-2.12636 -30.86403,-3.59946 -39.82226,-4.46289 4.10713,-1.14863 28.97153,1.01048 40.08984,2.76758 17.52654,2.76986 52.76758,11.69531 52.76758,11.69531 0,0 -0.15073,-0.19216 -0.1543,-0.19726 l -18.95312,-13.55274 z"
           style="opacity:1;fill:#62ab04;fill-opacity:1;stroke:none;stroke-width:21.70669556;stroke-linecap:round;stroke-linejoin:round;stroke-miterlimit:4;stroke-dasharray:none;stroke-dashoffset:0;stroke-opacity:1"
           inkscape:connector-curvature="0" />
        <path
           transform="scale(0.26458333)"
           id="path883"
           d="m -446.5918,562.1543 c 6.64022,-0.25172 30.08738,-0.88358 43.12305,2.48632 11.496,2.97189 31.35352,13.9668 31.35352,13.9668 l 18.95312,13.55274 c -0.43248,-0.61918 -26.85964,-38.28702 -60.56055,-39.80274 -11.89296,-0.53488 -31.24139,1.46858 -35.58789,0.96485 -1.82725,-0.63731 -3.76461,-1.13689 -5.23047,-1.16993 -1.46581,-0.034 -2.45878,0.40177 -2.39453,1.63477 -0.69195,1.72562 3.52704,1.21893 10.34375,8.36719 z"
           style="opacity:1;fill:#4a8b04;fill-opacity:1;stroke:none;stroke-width:21.70669556;stroke-linecap:round;stroke-linejoin:round;stroke-miterlimit:4;stroke-dasharray:none;stroke-dashoffset:0;stroke-opacity:1"
           inkscape:connector-curvature="0" />
        <path
           id="path885"
           d="m -77.875816,152.42589 c -4.093557,-0.067 -8.760976,2.09392 -11.649935,4.39663 -1.155727,0.9212 -2.935571,2.04376 -4.302064,2.87322 2.862458,0.2214 7.499303,1.81389 10.680485,4.92262 8.836093,8.63483 8.362797,16.96183 8.362797,16.96183 0,0 -1.474399,-8.8269 -8.268229,-15.16623 -3.650369,-3.40616 -8.120146,-5.16629 -12.615251,-5.62269 -10.629357,-1.07922 -16.050767,1.8317 -20.599257,7.55975 -6.05922,7.63055 -7.00374,19.88312 -3.591,29.0096 4.82008,12.89002 9.50488,27.77238 29.009602,27.68668 3.879994,-0.0171 7.276042,-2.92954 7.276042,-2.92954 0,0 4.217973,3.51929 8.97723,3.21324 19.286335,-1.24022 25.009515,-24.06546 24.379388,-39.9712 -0.540668,-13.64767 -11.960044,-28.27571 -24.946797,-32.50603 -0.854675,-0.2784 -1.768346,-0.41242 -2.713011,-0.42788 z"
           style="opacity:1;fill:#ea5e23;fill-opacity:1;stroke:none;stroke-width:5.74322987;stroke-linecap:round;stroke-linejoin:round;stroke-miterlimit:4;stroke-dasharray:none;stroke-dashoffset:0;stroke-opacity:1"
           inkscape:connector-curvature="0" />
      </g>
      <flowRoot
         transform="matrix(0.49511326,0,0,0.49511326,-81.261208,-81.395099)"
         style="font-style:normal;font-variant:normal;font-weight:normal;font-stretch:normal;font-size:40.00012207px;line-height:1.25;font-family:'Rock Salt';-inkscape-font-specification:'Rock Salt, Normal';font-variant-ligatures:normal;font-variant-caps:normal;font-variant-numeric:normal;font-feature-settings:normal;text-align:start;letter-spacing:0px;word-spacing:0px;writing-mode:lr-tb;text-anchor:start;fill:#ffffff;fill-opacity:1;stroke:none;stroke-width:0.5343895"
         id="flowRoot925"
         xml:space="preserve"><flowRegion
           style="font-style:normal;font-variant:normal;font-weight:normal;font-stretch:normal;font-size:40.00012207px;font-family:'Rock Salt';-inkscape-font-specification:'Rock Salt, Normal';font-variant-ligatures:normal;font-variant-caps:normal;font-variant-numeric:normal;font-feature-settings:normal;text-align:start;writing-mode:lr-tb;text-anchor:start;fill:#ffffff;fill-opacity:1;stroke-width:0.5343895"
           id="flowRegion927"><rect
             style="font-style:normal;font-variant:normal;font-weight:normal;font-stretch:normal;font-size:40.00012207px;font-family:'Rock Salt';-inkscape-font-specification:'Rock Salt, Normal';font-variant-ligatures:normal;font-variant-caps:normal;font-variant-numeric:normal;font-feature-settings:normal;text-align:start;writing-mode:lr-tb;text-anchor:start;fill:#ffffff;fill-opacity:1;stroke-width:0.5343895"
             y="333.23398"
             x="315"
             height="54.285713"
             width="154.28572"
             id="rect929" /></flowRegion><flowPara
           style="font-style:normal;font-variant:normal;font-weight:normal;font-stretch:normal;font-size:40.00012207px;font-family:'Rock Salt';-inkscape-font-specification:'Rock Salt, Normal';font-variant-ligatures:normal;font-variant-caps:normal;font-variant-numeric:normal;font-feature-settings:normal;text-align:start;writing-mode:lr-tb;text-anchor:start;stroke-width:0.5343895"
           id="flowPara931">Gifts</flowPara></flowRoot>      <flowRoot
         transform="matrix(0.30476476,0,0,0.30476476,-12.410927,-5.8934743)"
         style="font-style:normal;font-variant:normal;font-weight:normal;font-stretch:normal;font-size:32.4111557px;line-height:1.25;font-family:'Rock Salt';-inkscape-font-specification:'Rock Salt, Normal';font-variant-ligatures:normal;font-variant-caps:normal;font-variant-numeric:normal;font-feature-settings:normal;text-align:start;letter-spacing:0px;word-spacing:0px;writing-mode:lr-tb;text-anchor:start;fill:#ffffff;fill-opacity:1;stroke:none;stroke-width:0.8681559"
         id="flowRoot935"
         xml:space="preserve"><flowRegion
           style="font-style:normal;font-variant:normal;font-weight:normal;font-stretch:normal;font-size:32.4111557px;font-family:'Rock Salt';-inkscape-font-specification:'Rock Salt, Normal';font-variant-ligatures:normal;font-variant-caps:normal;font-variant-numeric:normal;font-feature-settings:normal;text-align:start;writing-mode:lr-tb;text-anchor:start;fill:#ffffff;fill-opacity:1;stroke-width:0.8681559"
           id="flowRegion937"><rect
             style="font-style:normal;font-variant:normal;font-weight:normal;font-stretch:normal;font-size:32.4111557px;font-family:'Rock Salt';-inkscape-font-specification:'Rock Salt, Normal';font-variant-ligatures:normal;font-variant-caps:normal;font-variant-numeric:normal;font-feature-settings:normal;text-align:start;writing-mode:lr-tb;text-anchor:start;fill:#ffffff;fill-opacity:1;stroke-width:0.8681559"
             y="234.66254"
             x="246.42857"
             height="67.14286"
             width="169.28572"
             id="rect939" /></flowRegion><flowPara
           style="font-style:normal;font-variant:normal;font-weight:normal;font-stretch:normal;font-size:32.4111557px;font-family:'Rock Salt';-inkscape-font-specification:'Rock Salt, Normal';font-variant-ligatures:normal;font-variant-caps:normal;font-variant-numeric:normal;font-feature-settings:normal;text-align:start;writing-mode:lr-tb;text-anchor:start;stroke-width:0.8681559"
           id="flowPara941">Georgia</flowPara></flowRoot>    </g>
  </g>
</svg>
